<mxfile host="app.diagrams.net" agent="Mozilla/5.0 (X11; Linux x86_64) AppleWebKit/537.36 (KHTML, like Gecko) Chrome/126.0.0.0 Safari/537.36" version="24.7.17">
  <diagram name="PÃ¡gina-1" id="7Mm43aZPIjxPLAoY0lpo">
    <mxGraphModel dx="794" dy="724" grid="1" gridSize="10" guides="1" tooltips="1" connect="1" arrows="1" fold="1" page="1" pageScale="1" pageWidth="827" pageHeight="1169" math="0" shadow="0">
      <root>
        <mxCell id="0" />
        <mxCell id="1" parent="0" />
        <mxCell id="HDb2IkSF3BfcgedNmjiI-1" value="cod_factura" style="whiteSpace=wrap;html=1;" vertex="1" parent="1">
          <mxGeometry x="170" y="90" width="120" height="60" as="geometry" />
        </mxCell>
        <mxCell id="HDb2IkSF3BfcgedNmjiI-2" value="cod_producto" style="whiteSpace=wrap;html=1;" vertex="1" parent="1">
          <mxGeometry x="170" y="210" width="120" height="60" as="geometry" />
        </mxCell>
        <mxCell id="HDb2IkSF3BfcgedNmjiI-3" value="" style="whiteSpace=wrap;html=1;fillColor=none;" vertex="1" parent="1">
          <mxGeometry x="155" y="45" width="150" height="260" as="geometry" />
        </mxCell>
        <mxCell id="HDb2IkSF3BfcgedNmjiI-4" value="fecha" style="whiteSpace=wrap;html=1;" vertex="1" parent="1">
          <mxGeometry x="370" y="40" width="50" height="30" as="geometry" />
        </mxCell>
        <mxCell id="HDb2IkSF3BfcgedNmjiI-5" value="nom_cli" style="whiteSpace=wrap;html=1;" vertex="1" parent="1">
          <mxGeometry x="370" y="80" width="50" height="30" as="geometry" />
        </mxCell>
        <mxCell id="HDb2IkSF3BfcgedNmjiI-6" value="dir_cli" style="whiteSpace=wrap;html=1;" vertex="1" parent="1">
          <mxGeometry x="370" y="120" width="50" height="30" as="geometry" />
        </mxCell>
        <mxCell id="HDb2IkSF3BfcgedNmjiI-7" value="cod_cli" style="whiteSpace=wrap;html=1;" vertex="1" parent="1">
          <mxGeometry x="370" y="160" width="50" height="30" as="geometry" />
        </mxCell>
        <mxCell id="HDb2IkSF3BfcgedNmjiI-8" value="localidad" style="whiteSpace=wrap;html=1;" vertex="1" parent="1">
          <mxGeometry x="370" y="225" width="50" height="30" as="geometry" />
        </mxCell>
        <mxCell id="HDb2IkSF3BfcgedNmjiI-9" value="telefono" style="whiteSpace=wrap;html=1;" vertex="1" parent="1">
          <mxGeometry x="370" y="280" width="50" height="30" as="geometry" />
        </mxCell>
        <mxCell id="HDb2IkSF3BfcgedNmjiI-10" value="" style="endArrow=classic;html=1;rounded=0;entryX=0;entryY=0.5;entryDx=0;entryDy=0;exitX=1;exitY=0.25;exitDx=0;exitDy=0;" edge="1" parent="1" source="HDb2IkSF3BfcgedNmjiI-1" target="HDb2IkSF3BfcgedNmjiI-4">
          <mxGeometry width="50" height="50" relative="1" as="geometry">
            <mxPoint x="300" y="110" as="sourcePoint" />
            <mxPoint x="430" y="350" as="targetPoint" />
          </mxGeometry>
        </mxCell>
        <mxCell id="HDb2IkSF3BfcgedNmjiI-11" value="" style="endArrow=classic;html=1;rounded=0;entryX=0;entryY=0.25;entryDx=0;entryDy=0;exitX=1;exitY=0.75;exitDx=0;exitDy=0;" edge="1" parent="1" source="HDb2IkSF3BfcgedNmjiI-1" target="HDb2IkSF3BfcgedNmjiI-7">
          <mxGeometry width="50" height="50" relative="1" as="geometry">
            <mxPoint x="300" y="115" as="sourcePoint" />
            <mxPoint x="380" y="65" as="targetPoint" />
          </mxGeometry>
        </mxCell>
        <mxCell id="HDb2IkSF3BfcgedNmjiI-12" value="" style="endArrow=none;dashed=1;html=1;rounded=0;entryX=0;entryY=0.5;entryDx=0;entryDy=0;exitX=1;exitY=0.5;exitDx=0;exitDy=0;" edge="1" parent="1" source="HDb2IkSF3BfcgedNmjiI-1" target="HDb2IkSF3BfcgedNmjiI-5">
          <mxGeometry width="50" height="50" relative="1" as="geometry">
            <mxPoint x="380" y="400" as="sourcePoint" />
            <mxPoint x="430" y="350" as="targetPoint" />
          </mxGeometry>
        </mxCell>
        <mxCell id="HDb2IkSF3BfcgedNmjiI-14" value="" style="endArrow=none;dashed=1;html=1;rounded=0;entryX=0;entryY=0.5;entryDx=0;entryDy=0;exitX=1.025;exitY=0.633;exitDx=0;exitDy=0;exitPerimeter=0;" edge="1" parent="1" source="HDb2IkSF3BfcgedNmjiI-1" target="HDb2IkSF3BfcgedNmjiI-6">
          <mxGeometry width="50" height="50" relative="1" as="geometry">
            <mxPoint x="300" y="130" as="sourcePoint" />
            <mxPoint x="380" y="105" as="targetPoint" />
          </mxGeometry>
        </mxCell>
        <mxCell id="HDb2IkSF3BfcgedNmjiI-15" value="" style="endArrow=none;dashed=1;html=1;rounded=0;entryX=0;entryY=0;entryDx=0;entryDy=0;exitX=1;exitY=0.883;exitDx=0;exitDy=0;exitPerimeter=0;" edge="1" parent="1" source="HDb2IkSF3BfcgedNmjiI-1" target="HDb2IkSF3BfcgedNmjiI-8">
          <mxGeometry width="50" height="50" relative="1" as="geometry">
            <mxPoint x="310" y="140" as="sourcePoint" />
            <mxPoint x="390" y="115" as="targetPoint" />
          </mxGeometry>
        </mxCell>
        <mxCell id="HDb2IkSF3BfcgedNmjiI-16" value="" style="endArrow=none;dashed=1;html=1;rounded=0;entryX=0;entryY=0.25;entryDx=0;entryDy=0;exitX=0.917;exitY=1.017;exitDx=0;exitDy=0;exitPerimeter=0;" edge="1" parent="1" source="HDb2IkSF3BfcgedNmjiI-1" target="HDb2IkSF3BfcgedNmjiI-9">
          <mxGeometry width="50" height="50" relative="1" as="geometry">
            <mxPoint x="320" y="150" as="sourcePoint" />
            <mxPoint x="400" y="125" as="targetPoint" />
          </mxGeometry>
        </mxCell>
        <mxCell id="HDb2IkSF3BfcgedNmjiI-17" value="" style="curved=1;endArrow=classic;html=1;rounded=0;entryX=1;entryY=0.25;entryDx=0;entryDy=0;exitX=0.75;exitY=1;exitDx=0;exitDy=0;" edge="1" parent="1" source="HDb2IkSF3BfcgedNmjiI-7" target="HDb2IkSF3BfcgedNmjiI-5">
          <mxGeometry width="50" height="50" relative="1" as="geometry">
            <mxPoint x="490" y="240" as="sourcePoint" />
            <mxPoint x="430" y="350" as="targetPoint" />
            <Array as="points">
              <mxPoint x="460" y="220" />
              <mxPoint x="500" y="150" />
            </Array>
          </mxGeometry>
        </mxCell>
        <mxCell id="HDb2IkSF3BfcgedNmjiI-18" value="" style="curved=1;endArrow=classic;html=1;rounded=0;entryX=1;entryY=0.5;entryDx=0;entryDy=0;exitX=1;exitY=0.75;exitDx=0;exitDy=0;" edge="1" parent="1" source="HDb2IkSF3BfcgedNmjiI-7" target="HDb2IkSF3BfcgedNmjiI-6">
          <mxGeometry width="50" height="50" relative="1" as="geometry">
            <mxPoint x="418" y="200" as="sourcePoint" />
            <mxPoint x="430" y="98" as="targetPoint" />
            <Array as="points">
              <mxPoint x="450" y="190" />
              <mxPoint x="460" y="150" />
            </Array>
          </mxGeometry>
        </mxCell>
        <mxCell id="HDb2IkSF3BfcgedNmjiI-19" value="" style="curved=1;endArrow=classic;html=1;rounded=0;entryX=1;entryY=0.75;entryDx=0;entryDy=0;" edge="1" parent="1" target="HDb2IkSF3BfcgedNmjiI-8">
          <mxGeometry width="50" height="50" relative="1" as="geometry">
            <mxPoint x="410" y="190" as="sourcePoint" />
            <mxPoint x="440" y="108" as="targetPoint" />
            <Array as="points">
              <mxPoint x="480" y="240" />
              <mxPoint x="460" y="260" />
            </Array>
          </mxGeometry>
        </mxCell>
        <mxCell id="HDb2IkSF3BfcgedNmjiI-20" value="" style="curved=1;endArrow=classic;html=1;rounded=0;entryX=1;entryY=0.5;entryDx=0;entryDy=0;exitX=1;exitY=1;exitDx=0;exitDy=0;exitPerimeter=0;" edge="1" parent="1" source="HDb2IkSF3BfcgedNmjiI-7" target="HDb2IkSF3BfcgedNmjiI-9">
          <mxGeometry width="50" height="50" relative="1" as="geometry">
            <mxPoint x="420" y="200" as="sourcePoint" />
            <mxPoint x="430" y="258" as="targetPoint" />
            <Array as="points">
              <mxPoint x="540" y="260" />
            </Array>
          </mxGeometry>
        </mxCell>
        <mxCell id="HDb2IkSF3BfcgedNmjiI-21" value="categ" style="whiteSpace=wrap;html=1;" vertex="1" parent="1">
          <mxGeometry x="100" y="370" width="40" height="20" as="geometry" />
        </mxCell>
        <mxCell id="HDb2IkSF3BfcgedNmjiI-23" value="desc_prod" style="whiteSpace=wrap;html=1;" vertex="1" parent="1">
          <mxGeometry x="150" y="370" width="60" height="30" as="geometry" />
        </mxCell>
        <mxCell id="HDb2IkSF3BfcgedNmjiI-25" value="precio" style="whiteSpace=wrap;html=1;" vertex="1" parent="1">
          <mxGeometry x="220" y="380" width="40" height="20" as="geometry" />
        </mxCell>
        <mxCell id="HDb2IkSF3BfcgedNmjiI-26" value="" style="endArrow=classic;html=1;rounded=0;exitX=0.25;exitY=1;exitDx=0;exitDy=0;entryX=0.75;entryY=0;entryDx=0;entryDy=0;" edge="1" parent="1" source="HDb2IkSF3BfcgedNmjiI-2" target="HDb2IkSF3BfcgedNmjiI-21">
          <mxGeometry width="50" height="50" relative="1" as="geometry">
            <mxPoint x="220" y="360" as="sourcePoint" />
            <mxPoint x="270" y="310" as="targetPoint" />
          </mxGeometry>
        </mxCell>
        <mxCell id="HDb2IkSF3BfcgedNmjiI-27" value="" style="endArrow=classic;html=1;rounded=0;entryX=0.5;entryY=0;entryDx=0;entryDy=0;" edge="1" parent="1" target="HDb2IkSF3BfcgedNmjiI-23">
          <mxGeometry width="50" height="50" relative="1" as="geometry">
            <mxPoint x="230" y="270" as="sourcePoint" />
            <mxPoint x="180" y="370" as="targetPoint" />
          </mxGeometry>
        </mxCell>
        <mxCell id="HDb2IkSF3BfcgedNmjiI-28" value="" style="endArrow=classic;html=1;rounded=0;exitX=0.833;exitY=1;exitDx=0;exitDy=0;entryX=0.5;entryY=0;entryDx=0;entryDy=0;exitPerimeter=0;" edge="1" parent="1" source="HDb2IkSF3BfcgedNmjiI-2" target="HDb2IkSF3BfcgedNmjiI-25">
          <mxGeometry width="50" height="50" relative="1" as="geometry">
            <mxPoint x="220" y="290" as="sourcePoint" />
            <mxPoint x="190" y="380" as="targetPoint" />
          </mxGeometry>
        </mxCell>
        <mxCell id="HDb2IkSF3BfcgedNmjiI-29" value="precio_u" style="whiteSpace=wrap;html=1;" vertex="1" parent="1">
          <mxGeometry x="300" y="360" width="60" height="25" as="geometry" />
        </mxCell>
        <mxCell id="HDb2IkSF3BfcgedNmjiI-30" value="" style="endArrow=classic;html=1;rounded=0;exitX=1;exitY=1;exitDx=0;exitDy=0;entryX=0;entryY=0;entryDx=0;entryDy=0;" edge="1" parent="1" source="HDb2IkSF3BfcgedNmjiI-2" target="HDb2IkSF3BfcgedNmjiI-29">
          <mxGeometry width="50" height="50" relative="1" as="geometry">
            <mxPoint x="280" y="280" as="sourcePoint" />
            <mxPoint x="290" y="375" as="targetPoint" />
          </mxGeometry>
        </mxCell>
        <mxCell id="HDb2IkSF3BfcgedNmjiI-32" value="DNI" style="whiteSpace=wrap;html=1;" vertex="1" parent="1">
          <mxGeometry x="370" y="320" width="50" height="30" as="geometry" />
        </mxCell>
        <mxCell id="HDb2IkSF3BfcgedNmjiI-33" value="" style="endArrow=none;dashed=1;html=1;rounded=0;entryX=0;entryY=0.25;entryDx=0;entryDy=0;exitX=0.833;exitY=1;exitDx=0;exitDy=0;exitPerimeter=0;" edge="1" parent="1" source="HDb2IkSF3BfcgedNmjiI-1" target="HDb2IkSF3BfcgedNmjiI-32">
          <mxGeometry width="50" height="50" relative="1" as="geometry">
            <mxPoint x="290" y="161" as="sourcePoint" />
            <mxPoint x="380" y="298" as="targetPoint" />
          </mxGeometry>
        </mxCell>
        <mxCell id="HDb2IkSF3BfcgedNmjiI-34" value="" style="curved=1;endArrow=classic;html=1;rounded=0;entryX=1;entryY=0.25;entryDx=0;entryDy=0;" edge="1" parent="1" target="HDb2IkSF3BfcgedNmjiI-32">
          <mxGeometry width="50" height="50" relative="1" as="geometry">
            <mxPoint x="420" y="190" as="sourcePoint" />
            <mxPoint x="430" y="305" as="targetPoint" />
            <Array as="points">
              <mxPoint x="550" y="270" />
            </Array>
          </mxGeometry>
        </mxCell>
      </root>
    </mxGraphModel>
  </diagram>
</mxfile>
